<svg width="114" height="113" viewBox="0 0 114 113" fill="none" xmlns="http://www.w3.org/2000/svg">
<path d="M32.4789 99.2923C27.7782 83.4288 27.1085 66.5021 35.9719 51.6384C43.9723 38.2223 57.8503 32.6155 68.5031 46.8162C73.546 53.5384 75.0316 64.8795 68.9506 71.4661C62.1759 78.8041 53.9096 68.65 52.6268 62.1473C49.6304 46.9594 58.489 29.7819 74.8142 25.1772C94.1471 19.7243 96.6139 40.2414 96.4797 40.2118" stroke="#CECECE" stroke-width="2.352" stroke-miterlimit="1.5" stroke-linecap="round" stroke-linejoin="round"/>
<path d="M16.8701 82.9646C18.6989 83.031 20.2991 83.8458 21.9377 84.577C27.3182 86.9771 32.3459 91.282 34.6454 96.8473C34.1657 90.342 35.7354 81.7344 41.3195 77.7593" stroke="#CECECE" stroke-width="2.352" stroke-miterlimit="1.5" stroke-linecap="round" stroke-linejoin="round"/>
</svg>
