<svg width="75" height="76" viewBox="0 0 75 76" fill="none" xmlns="http://www.w3.org/2000/svg">
<path d="M0 0.902344H74.7594V46.7492C74.7594 62.7171 61.8148 75.6617 45.8469 75.6617H0V0.902344Z" fill="#BDE7DF"/>
<path d="M37.3801 41.3802C36.6589 42.3391 36.0518 43.3787 35.571 44.478H29.6357C29.2249 44.478 28.831 44.6412 28.5405 44.9316C28.25 45.2221 28.0868 45.6161 28.0868 46.0269V48.9594C28.5825 51.0845 30.5795 52.3566 34.4104 52.6767C34.5508 53.7651 34.8048 54.8204 35.1601 55.8261C29.3528 55.5577 25.8255 53.4698 25.02 49.4282L24.9891 49.1246V46.0269C24.9891 44.7945 25.4786 43.6126 26.35 42.7412C27.2215 41.8698 28.4033 41.3802 29.6357 41.3802H37.3801ZM60.3284 39.3398C59.5525 38.6172 58.7048 37.9757 57.7985 37.4254C57.9059 37.1714 57.9844 36.9009 58.0319 36.6159V33.6358C58.0319 33.225 57.8687 32.8311 57.5782 32.5406C57.2878 32.2501 56.8938 32.0869 56.483 32.0869H45.6408C45.6408 31.0007 45.455 29.9557 45.1121 28.9871L56.483 28.9892C57.7154 28.9892 58.8973 29.4787 59.7687 30.3501C60.6401 31.2216 61.1296 32.4035 61.1296 33.6358V36.7377L61.1131 36.9608C60.9999 37.7952 60.7338 38.6017 60.3284 39.3398ZM27.5829 28.9871L16.2121 28.9892C14.9797 28.9892 13.7978 29.4787 12.9264 30.3501C12.055 31.2216 11.5654 32.4035 11.5654 33.6358V36.7336L11.5943 37.0372C12.4617 41.3761 16.4682 43.464 23.0623 43.464L23.434 43.4599C24.0233 42.0393 25.0817 40.8636 26.4326 40.1287C25.4661 40.2857 24.3468 40.3662 23.0623 40.3662C17.8663 40.3662 15.2414 39.0486 14.6632 36.5684V33.6358C14.6632 33.225 14.8264 32.8311 15.1168 32.5406C15.4073 32.2501 15.8013 32.0869 16.2121 32.0869H27.0542L27.0687 31.5479C27.1203 30.6537 27.2979 29.7946 27.585 28.9871H27.5829ZM43.5756 32.0869C43.5756 30.1699 42.8141 28.3314 41.4586 26.9759C40.1031 25.6204 38.2646 24.8588 36.3475 24.8588C34.4305 24.8588 32.592 25.6204 31.2365 26.9759C29.881 28.3314 29.1194 30.1699 29.1194 32.0869C29.1194 34.004 29.881 35.8425 31.2365 37.198C32.592 38.5535 34.4305 39.3151 36.3475 39.3151C38.2646 39.3151 40.1031 38.5535 41.4586 37.198C42.8141 35.8425 43.5756 34.004 43.5756 32.0869ZM32.2172 32.0869C32.2172 30.9915 32.6523 29.9409 33.4269 29.1663C34.2015 28.3918 35.2521 27.9566 36.3475 27.9566C37.443 27.9566 38.4935 28.3918 39.2681 29.1663C40.0427 29.9409 40.4779 30.9915 40.4779 32.0869C40.4779 33.1824 40.0427 34.2329 39.2681 35.0075C38.4935 35.7821 37.443 36.2173 36.3475 36.2173C35.2521 36.2173 34.2015 35.7821 33.4269 35.0075C32.6523 34.2329 32.2172 33.1824 32.2172 32.0869ZM56.9993 19.6959C56.9993 17.7789 56.2378 15.9404 54.8822 14.5848C53.5267 13.2293 51.6882 12.4678 49.7712 12.4678C47.8542 12.4678 46.0157 13.2293 44.6601 14.5848C43.3046 15.9404 42.5431 17.7789 42.5431 19.6959C42.5431 21.6129 43.3046 23.4514 44.6601 24.8069C46.0157 26.1625 47.8542 26.924 49.7712 26.924C51.6882 26.924 53.5267 26.1625 54.8822 24.8069C56.2378 23.4514 56.9993 21.6129 56.9993 19.6959ZM45.6408 19.6959C45.6408 18.6005 46.076 17.5499 46.8506 16.7753C47.6252 16.0007 48.6757 15.5655 49.7712 15.5655C50.8666 15.5655 51.9172 16.0007 52.6918 16.7753C53.4664 17.5499 53.9015 18.6005 53.9015 19.6959C53.9015 20.7913 53.4664 21.8419 52.6918 22.6165C51.9172 23.3911 50.8666 23.8262 49.7712 23.8262C48.6757 23.8262 47.6252 23.3911 46.8506 22.6165C46.076 21.8419 45.6408 20.7913 45.6408 19.6959ZM30.152 19.6959C30.152 17.7789 29.3905 15.9404 28.0349 14.5848C26.6794 13.2293 24.8409 12.4678 22.9239 12.4678C21.0069 12.4678 19.1684 13.2293 17.8128 14.5848C16.4573 15.9404 15.6958 17.7789 15.6958 19.6959C15.6958 21.6129 16.4573 23.4514 17.8128 24.8069C19.1684 26.1625 21.0069 26.924 22.9239 26.924C24.8409 26.924 26.6794 26.1625 28.0349 24.8069C29.3905 23.4514 30.152 21.6129 30.152 19.6959ZM18.7935 19.6959C18.7935 18.6005 19.2287 17.5499 20.0033 16.7753C20.7779 16.0007 21.8285 15.5655 22.9239 15.5655C24.0193 15.5655 25.0699 16.0007 25.8445 16.7753C26.6191 17.5499 27.0542 18.6005 27.0542 19.6959C27.0542 20.7913 26.6191 21.8419 25.8445 22.6165C25.0699 23.3911 24.0193 23.8262 22.9239 23.8262C21.8285 23.8262 20.7779 23.3911 20.0033 22.6165C19.2287 21.8419 18.7935 20.7913 18.7935 19.6959ZM49.7712 64.0972C53.3313 64.0972 56.7457 62.6829 59.2631 60.1655C61.7805 57.648 63.1948 54.2337 63.1948 50.6735C63.1948 47.1133 61.7805 43.699 59.2631 41.1816C56.7457 38.6642 53.3313 37.2499 49.7712 37.2499C46.211 37.2499 42.7966 38.6642 40.2792 41.1816C37.7618 43.699 36.3475 47.1133 36.3475 50.6735C36.3475 54.2337 37.7618 57.648 40.2792 60.1655C42.7966 62.6829 46.211 64.0972 49.7712 64.0972ZM49.7712 41.3802C50.045 41.3802 50.3077 41.489 50.5013 41.6827C50.695 41.8763 50.8038 42.139 50.8038 42.4128V49.6409H58.0319C58.3057 49.6409 58.5684 49.7497 58.762 49.9434C58.9557 50.137 59.0645 50.3997 59.0645 50.6735C59.0645 50.9474 58.9557 51.21 58.762 51.4037C58.5684 51.5973 58.3057 51.7061 58.0319 51.7061H50.8038V58.9342C50.8038 59.2081 50.695 59.4707 50.5013 59.6644C50.3077 59.858 50.045 59.9668 49.7712 59.9668C49.4973 59.9668 49.2347 59.858 49.041 59.6644C48.8474 59.4707 48.7386 59.2081 48.7386 58.9342V51.7061H41.5105C41.2366 51.7061 40.974 51.5973 40.7803 51.4037C40.5867 51.21 40.4779 50.9474 40.4779 50.6735C40.4779 50.3997 40.5867 50.137 40.7803 49.9434C40.974 49.7497 41.2366 49.6409 41.5105 49.6409H48.7386V42.4128C48.7386 42.139 48.8474 41.8763 49.041 41.6827C49.2347 41.489 49.4973 41.3802 49.7712 41.3802Z" fill="#135246"/>
</svg>
