<svg width="75" height="75" viewBox="0 0 75 75" fill="none" xmlns="http://www.w3.org/2000/svg">
<path d="M0.870117 0.321289H75.0001V45.5388C75.0001 61.5067 62.0555 74.4513 46.0876 74.4513H0.870117V0.321289Z" fill="#FFC0CB"/>
<path d="M53.3949 26.7086L42.2387 15.5523C41.9199 15.2336 41.6012 15.0742 41.123 15.0742H25.1855C23.4324 15.0742 21.998 16.5086 21.998 18.2617V56.5117C21.998 58.2648 23.4324 59.6992 25.1855 59.6992H50.6855C52.4387 59.6992 53.873 58.2648 53.873 56.5117V27.8242C53.873 27.3461 53.7137 27.0273 53.3949 26.7086ZM41.123 18.8992L50.048 27.8242H41.123V18.8992ZM50.6855 56.5117H25.1855V18.2617H37.9355V27.8242C37.9355 29.5773 39.3699 31.0117 41.123 31.0117H50.6855V56.5117Z" fill="#AE0721"/>
<path d="M28.373 46.9492H47.498V50.1367H28.373V46.9492ZM28.373 37.3867H47.498V40.5742H28.373V37.3867Z" fill="#AE0721"/>
</svg>
