<svg width="144" height="76" viewBox="0 0 144 76" fill="none" xmlns="http://www.w3.org/2000/svg">
<path d="M72.2217 72.7549C110.052 72.7549 140.72 57.1924 140.72 37.9953C140.72 18.7983 110.052 3.23562 72.2217 3.23562C34.3918 3.23562 3.72363 18.7983 3.72363 37.9953C3.72363 57.1924 34.3918 72.7549 72.2217 72.7549Z" fill="#777BB3"/>
<path d="M39.668 42.3037C42.7786 42.3037 45.1008 41.7293 46.5702 40.597C48.0237 39.4763 49.0277 37.5346 49.5539 34.8262C50.0446 32.2947 49.8576 30.527 48.9986 29.5731C48.1202 28.5988 46.2211 28.1046 43.3541 28.1046H38.383L35.6272 42.3037H39.668ZM23.409 59.7944C23.1782 59.7944 22.9591 59.6912 22.8124 59.5125C22.6654 59.3341 22.6059 59.0992 22.65 58.8723L29.9535 21.2444C30.0242 20.8807 30.3426 20.6178 30.7128 20.6178H46.4539C51.401 20.6178 55.0832 21.9629 57.3976 24.6161C59.7245 27.2832 60.443 31.0113 59.5332 35.6968C59.1629 37.6056 58.5261 39.3785 57.6405 40.9657C56.7538 42.5547 55.5821 44.0249 54.1571 45.3364C52.4513 46.935 50.5208 48.0941 48.4241 48.7762C46.3608 49.4492 43.7109 49.7905 40.5482 49.7905H34.1743L32.3541 59.1676C32.2835 59.5316 31.9653 59.7944 31.5951 59.7944H23.409Z" fill="black"/>
<path d="M39.0217 28.8791H43.3551C46.8154 28.8791 48.0173 29.6394 48.4257 30.0924C49.1033 30.8447 49.2312 32.4309 48.7957 34.6793C48.3063 37.1964 47.3993 38.9811 46.0994 39.9833C44.7685 41.0092 42.6049 41.5292 39.6691 41.5292H36.5664L39.0217 28.8791ZM46.4549 19.8433H30.7136C29.9732 19.8433 29.3366 20.3689 29.1953 21.0967L21.8917 58.7245C21.8036 59.1786 21.9227 59.6482 22.2163 60.0053C22.5102 60.3623 22.948 60.5688 23.41 60.5688H31.5959C32.3366 60.5688 32.9732 60.0432 33.1145 59.3155L34.813 50.5649H40.5493C43.7932 50.5649 46.524 50.2107 48.6652 49.5124C50.8673 48.796 52.8933 47.5813 54.6864 45.9022C56.1694 44.536 57.391 43.0025 58.3165 41.3438C59.2424 39.6846 59.9076 37.8343 60.2935 35.8444C61.2513 30.9124 60.4732 26.963 57.9811 24.1066C55.5132 21.2776 51.6351 19.8433 46.4549 19.8433ZM34.6897 43.0781H39.6691C42.9694 43.0781 45.4278 42.4557 47.043 41.2106C48.6585 39.9652 49.7481 37.8867 50.3143 34.9741C50.8559 32.1776 50.6092 30.2042 49.5741 29.0546C48.5376 27.905 46.465 27.3301 43.3551 27.3301H37.7465L34.6897 43.0781ZM46.4549 21.3923C51.1903 21.3923 54.6449 22.6366 56.8163 25.1256C58.9874 27.6146 59.6412 31.0887 58.7749 35.549C58.4184 37.3864 57.8153 39.0663 56.9663 40.5881C56.1163 42.1111 55.0064 43.5036 53.6347 44.7663C52.0002 46.298 50.1843 47.3895 48.1862 48.0396C46.1881 48.6914 43.6431 49.016 40.5493 49.016H33.5375L31.5959 59.0199H23.41L30.7136 21.3923H46.4549Z" fill="white"/>
<path d="M78.3016 49.7915C78.0706 49.7915 77.8517 49.6882 77.705 49.5096C77.5578 49.3312 77.4982 49.0965 77.5423 48.8693L80.7731 32.2205C81.0804 30.6372 81.0046 29.5007 80.5598 29.0206C80.2876 28.727 79.4698 28.2347 77.0517 28.2347H71.1986L67.1366 49.1647C67.066 49.5287 66.7475 49.7915 66.3773 49.7915H58.2559C58.0249 49.7915 57.806 49.6882 57.6591 49.5096C57.5121 49.3312 57.4526 49.0963 57.4966 48.8693L64.8002 11.2415C64.8709 10.8777 65.1893 10.6149 65.5595 10.6149H73.6809C73.9119 10.6149 74.1308 10.7182 74.2777 10.8966C74.4247 11.0752 74.4843 11.3099 74.4402 11.5371L72.6777 20.6188H78.9742C83.771 20.6188 87.0237 21.4656 88.9182 23.2077C90.8492 24.9849 91.4518 27.8265 90.7092 31.6546L87.3112 49.1647C87.2405 49.5287 86.9224 49.7915 86.5519 49.7915H78.3016Z" fill="black"/>
<path d="M73.681 9.84035H65.5596C64.8189 9.84035 64.1823 10.366 64.041 11.0937L56.7374 48.7216C56.6493 49.1757 56.7684 49.6453 57.0623 50.0023C57.3562 50.3594 57.794 50.5659 58.256 50.5659H66.3774C67.1179 50.5659 67.7547 50.0403 67.896 49.3125L71.8362 29.0091H77.0517C79.4657 29.0091 79.9723 29.5254 79.9927 29.5476C80.1391 29.7054 80.3317 30.436 80.0138 32.0728L76.7831 48.7216C76.6949 49.1757 76.814 49.6453 77.1079 50.0023C77.4018 50.3594 77.8396 50.5659 78.3016 50.5659H86.5519C87.2924 50.5659 87.9292 50.0403 88.0705 49.3125L91.4683 31.8025C92.2658 27.6922 91.5836 24.6089 89.4416 22.6376C87.3976 20.7579 83.9737 19.8443 78.9743 19.8443H73.6157L75.1995 11.6849C75.2875 11.2308 75.1686 10.761 74.8747 10.4042C74.5808 10.0471 74.143 9.84035 73.681 9.84035ZM73.681 11.3893L71.7393 21.3932H78.9743C83.5267 21.3932 86.6667 22.1889 88.3948 23.7782C90.123 25.3685 90.6407 27.9452 89.95 31.5071L86.5519 49.0169H78.3016L81.5324 32.3684C81.9001 30.4745 81.765 29.1826 81.1266 28.4938C80.488 27.805 79.1295 27.4601 77.0517 27.4601H70.5608L66.3774 49.0169H58.256L65.5596 11.3893H73.681Z" fill="white"/>
<path d="M103.561 42.3052C106.671 42.3052 108.993 41.7308 110.463 40.5985C111.916 39.478 112.92 37.5364 113.447 34.8277C113.937 32.2961 113.75 30.5285 112.891 29.5746C112.013 28.6002 110.114 28.1061 107.247 28.1061H102.276L99.5197 42.3052H103.561ZM87.3018 59.7959C87.0711 59.7959 86.8519 59.6926 86.7052 59.514C86.5582 59.3356 86.4984 59.1007 86.5425 58.8737L93.8461 21.2459C93.917 20.8821 94.2351 20.6193 94.6056 20.6193H110.346C115.294 20.6193 118.976 21.9644 121.29 24.6175C123.617 27.2844 124.336 31.0125 123.426 35.6982C123.055 37.6071 122.419 39.3799 121.533 40.9671C120.646 42.5561 119.475 44.0264 118.05 45.3379C116.344 46.9364 114.413 48.0956 112.317 48.7777C110.253 49.4507 107.603 49.792 104.441 49.792H98.0666L96.2472 59.1691C96.1763 59.5331 95.8581 59.7959 95.4876 59.7959H87.3018Z" fill="black"/>
<path d="M102.915 28.8791H107.248C110.709 28.8791 111.911 29.6394 112.319 30.0924C112.997 30.8447 113.125 32.4309 112.689 34.679C112.2 37.1964 111.292 38.9811 109.993 39.9833C108.662 41.0092 106.498 41.5292 103.562 41.5292H100.46L102.915 28.8791ZM110.348 19.8433H94.6072C93.8667 19.8433 93.2302 20.3689 93.0889 21.0967L85.7853 58.7245C85.6971 59.1786 85.8162 59.6482 86.1099 60.0053C86.4038 60.3623 86.8416 60.5688 87.3036 60.5688H95.4894C96.2299 60.5688 96.8667 60.0432 97.008 59.3155L98.7063 50.5649H104.443C107.686 50.5649 110.417 50.2107 112.559 49.5124C114.761 48.796 116.787 47.5811 118.58 45.9017C120.063 44.5358 121.284 43.0025 122.21 41.3438C123.136 39.6846 123.801 37.8343 124.187 35.8444C125.145 30.9121 124.367 26.9627 121.874 24.1064C119.407 21.2776 115.529 19.8433 110.348 19.8433ZM98.5833 43.0781H103.562C106.863 43.0781 109.321 42.4557 110.936 41.2106C112.552 39.9652 113.641 37.8867 114.208 34.9741C114.75 32.1776 114.503 30.2042 113.467 29.0546C112.431 27.905 110.358 27.3301 107.248 27.3301H101.64L98.5833 43.0781ZM110.348 21.3923C115.084 21.3923 118.538 22.6366 120.71 25.1256C122.881 27.6146 123.535 31.0887 122.668 35.549C122.312 37.3864 121.709 39.0663 120.86 40.5881C120.01 42.1111 118.9 43.5036 117.528 44.7663C115.893 46.298 114.078 47.3895 112.079 48.0396C110.081 48.6914 107.536 49.016 104.443 49.016H97.4308L95.4894 59.0199H87.3036L94.6072 21.3923H110.348Z" fill="white"/>
</svg>
