<svg width="216" height="60" viewBox="0 0 216 60" fill="none" xmlns="http://www.w3.org/2000/svg">
<path d="M89.3558 49.3106H89.2593C89.3027 49.3106 89.3317 49.3588 89.3751 49.3636H89.404L89.3558 49.3154V49.3106ZM89.3751 49.3636C88.9266 49.3685 87.7982 49.6047 86.6071 49.6047C82.8458 49.6047 81.5438 47.8687 81.5438 45.6023V30.5039H89.2111C89.6451 30.5039 89.9827 30.1181 89.9827 29.5877V21.3899C89.9827 20.9559 89.5969 20.5701 89.2111 20.5701H81.5438V10.3953C81.5438 10.0095 81.3027 9.76836 80.8687 9.76836H70.4527C70.0187 9.76836 69.7776 10.0095 69.7776 10.3953V20.8595C69.7776 20.8595 64.5213 22.1615 64.1838 22.2097C63.798 22.3061 63.5569 22.6437 63.5569 23.0295V29.5877C63.5569 30.1181 63.9427 30.5039 64.3767 30.5039H69.7293V46.3208C69.7293 58.087 77.9271 59.2926 83.5209 59.2926C86.0767 59.2926 89.1629 58.4728 89.6451 58.2317C89.9345 58.1353 90.0791 57.7977 90.0791 57.4601V50.2268C90.0858 50.0217 90.0182 49.821 89.8889 49.6616C89.7596 49.5021 89.5772 49.3947 89.3751 49.3588V49.3636ZM203.642 38.7499C203.642 30.0217 200.122 28.8644 196.409 29.2501C193.516 29.443 191.201 30.8897 191.201 30.8897V47.8639C191.201 47.8639 193.564 49.5035 197.084 49.5999C202.051 49.7446 203.642 47.9604 203.642 38.7499ZM215.36 37.9784C215.36 54.5186 210.008 59.2444 200.653 59.2444C192.744 59.2444 188.501 55.2419 188.501 55.2419C188.501 55.2419 188.308 57.4601 188.067 57.7495C187.922 58.0388 187.681 58.1353 187.392 58.1353H180.255C179.772 58.1353 179.338 57.7495 179.338 57.3155L179.435 3.74058C179.435 3.30658 179.821 2.92081 180.255 2.92081H190.526C190.96 2.92081 191.346 3.30658 191.346 3.74058V21.9204C191.346 21.9204 195.3 19.3646 201.087 19.3646L201.038 19.2681C206.825 19.2681 215.36 21.4381 215.36 37.9784ZM173.311 20.5701H163.184C162.654 20.5701 162.364 20.9559 162.364 21.4864V47.7193C162.364 47.7193 159.712 49.5999 156.095 49.5999C152.479 49.5999 151.418 47.9604 151.418 44.3437V21.4381C151.418 21.0041 151.032 20.6184 150.598 20.6184H140.278C139.844 20.6184 139.459 21.0041 139.459 21.4381V46.0797C139.459 56.6886 145.39 59.3408 153.54 59.3408C160.242 59.3408 165.692 55.6277 165.692 55.6277C165.692 55.6277 165.933 57.5084 166.077 57.7977C166.174 58.0388 166.511 58.2317 166.849 58.2317H173.311C173.841 58.2317 174.13 57.8459 174.13 57.4119L174.227 21.3899C174.227 20.9559 173.841 20.5701 173.311 20.5701ZM59.024 20.5219H48.7527C48.3187 20.5219 47.9329 20.9559 47.9329 21.4864V56.8815C47.9329 57.8459 48.5598 58.1835 49.3796 58.1835H58.6382C59.6027 58.1835 59.8438 57.7495 59.8438 56.8815V21.3417C59.8438 20.9077 59.458 20.5219 59.024 20.5219ZM53.9607 4.22281C50.2476 4.22281 47.306 7.16436 47.306 10.8775C47.306 14.5906 50.2476 17.5321 53.9607 17.5321C57.5773 17.5321 60.5189 14.5906 60.5189 10.8775C60.5189 7.16436 57.5773 4.22281 53.9607 4.22281ZM133.479 3.01725H123.304C122.87 3.01725 122.484 3.40303 122.484 3.83703V23.5599H106.523V3.83703C106.523 3.40303 106.137 3.01725 105.703 3.01725H95.4318C94.9978 3.01725 94.612 3.40303 94.612 3.83703V57.4119C94.612 57.8459 95.046 58.2317 95.4318 58.2317H105.703C106.137 58.2317 106.523 57.8459 106.523 57.4119V34.5064H122.484L122.388 57.4119C122.388 57.8459 122.774 58.2317 123.208 58.2317H133.479C133.913 58.2317 134.299 57.8459 134.299 57.4119V3.83703C134.299 3.40303 133.913 3.01725 133.479 3.01725ZM42.4838 26.7426V54.4221C42.4838 54.615 42.4356 54.9526 42.1945 55.049C42.1945 55.049 36.1667 59.3408 26.2329 59.3408C14.2256 59.3408 0 55.5795 0 30.7933C0 6.00703 12.4413 0.895474 24.5933 0.943696C35.1058 0.943696 39.3493 3.30658 40.0244 3.74058C40.2173 3.9817 40.3138 4.17459 40.3138 4.4157L38.2884 12.9993C38.2884 13.4333 37.8544 13.9637 37.324 13.819C35.588 13.2886 32.984 12.2277 26.8598 12.2277C19.7711 12.2277 12.152 14.253 12.152 30.2146C12.152 46.1761 19.3853 48.0568 24.5933 48.0568C29.0298 48.0568 30.6211 47.5264 30.6211 47.5264V36.4353H23.5324C23.002 36.4353 22.6162 36.0495 22.6162 35.6155V26.7426C22.6162 26.3086 23.002 25.9228 23.5324 25.9228H41.5676C42.098 25.9228 42.4838 26.3086 42.4838 26.7426Z" fill="#24292E"/>
</svg>
