<svg width="48" height="48" viewBox="0 0 48 48" fill="none" xmlns="http://www.w3.org/2000/svg">
<rect width="48" height="48" rx="24" fill="#E3EBFD"/>
<path d="M29.4163 17.9917C27.2497 21.7834 23.0747 23.9584 18.7247 23.5667L16.083 23.325" stroke="#4475F2" stroke-miterlimit="10" stroke-linecap="round" stroke-linejoin="round"/>
<path d="M18.583 30.1417C20.7497 26.3501 24.9247 24.1751 29.2747 24.5667L31.9163 24.8084" stroke="#4475F2" stroke-miterlimit="10" stroke-linecap="round" stroke-linejoin="round"/>
<path d="M24.0003 32.3334C28.6027 32.3334 32.3337 28.6025 32.3337 24.0001C32.3337 19.3977 28.6027 15.6667 24.0003 15.6667C19.398 15.6667 15.667 19.3977 15.667 24.0001C15.667 28.6025 19.398 32.3334 24.0003 32.3334Z" stroke="#4475F2" stroke-miterlimit="10" stroke-linecap="round" stroke-linejoin="round"/>
<path d="M20.3584 16.5L23.0084 19.7917C24.7834 21.9917 26.0417 24.55 26.7084 27.2917L27.7167 31.45" stroke="#4475F2" stroke-miterlimit="10" stroke-linecap="round" stroke-linejoin="round"/>
</svg>
