<svg width="139" height="139" viewBox="0 0 139 139" fill="none" xmlns="http://www.w3.org/2000/svg">
<path d="M74.7486 111.552C60.702 102.809 48.9643 90.5944 45.7254 73.5944C42.8021 58.25 49.4588 44.8438 66.8528 48.3919C75.0868 50.0714 83.7267 57.5667 83.5516 66.5295C83.3564 76.5147 70.4336 74.4085 65.1573 70.397C52.8338 61.0278 48.0552 42.3006 57.2074 28.0194C68.0457 11.1071 83.5109 24.8133 83.3909 24.8802" stroke="#00334F" stroke-width="2.352" stroke-miterlimit="1.5" stroke-linecap="round" stroke-linejoin="round"/>
<path d="M56.9095 116.195C58.3213 115.031 60.0589 114.578 61.7697 114.037C67.387 112.26 74.0048 112.142 79.4191 114.777C74.7417 110.231 70.2014 102.751 71.7386 96.0715" stroke="#00334F" stroke-width="2.352" stroke-miterlimit="1.5" stroke-linecap="round" stroke-linejoin="round"/>
</svg>
