<svg width="48" height="48" viewBox="0 0 48 48" fill="none" xmlns="http://www.w3.org/2000/svg">
<rect width="48" height="48" rx="24" fill="#E3EBFD"/>
<path d="M20.042 19.8334H27.9587V18.1667C27.9587 16.5001 27.3337 15.6667 25.4587 15.6667H22.542C20.667 15.6667 20.042 16.5001 20.042 18.1667V19.8334Z" stroke="#00334F" stroke-width="1.2" stroke-miterlimit="10" stroke-linecap="round" stroke-linejoin="round"/>
<path d="M27.3337 26.5V29.8333C27.3337 31.5 26.5003 32.3333 24.8337 32.3333H23.167C21.5003 32.3333 20.667 31.5 20.667 29.8333V26.5H27.3337Z" stroke="#00334F" stroke-width="1.2" stroke-miterlimit="10" stroke-linecap="round" stroke-linejoin="round"/>
<path d="M31.5 22.3333V26.4999C31.5 28.1666 30.6667 28.9999 29 28.9999H27.3333V26.4999H20.6667V28.9999H19C17.3333 28.9999 16.5 28.1666 16.5 26.4999V22.3333C16.5 20.6666 17.3333 19.8333 19 19.8333H29C30.6667 19.8333 31.5 20.6666 31.5 22.3333Z" stroke="#00334F" stroke-width="1.2" stroke-miterlimit="10" stroke-linecap="round" stroke-linejoin="round"/>
<path d="M28.1663 26.5H27.158H19.833" stroke="#00334F" stroke-width="1.2" stroke-miterlimit="10" stroke-linecap="round" stroke-linejoin="round"/>
<path d="M19.833 23.1667H22.333" stroke="#00334F" stroke-width="1.2" stroke-miterlimit="10" stroke-linecap="round" stroke-linejoin="round"/>
</svg>
