<svg width="41" height="41" viewBox="0 0 41 41" fill="none" xmlns="http://www.w3.org/2000/svg">
<path d="M26.7391 17.9919C26.844 12.7252 18.844 13.449 20.9011 4.28711C20.9011 4.28711 15.5297 6.40141 16.4726 12.8871C16.7964 15.1157 16.0154 16.7824 16.0154 16.7824C15.2249 16.9443 13.9964 15.3728 14.4249 12.9443C14.4249 12.9443 11.6059 15.049 11.6059 17.7537C11.6059 20.4585 12.9106 23.3252 12.9106 23.3252C9.66302 22.6204 9.98684 18.2395 9.98684 18.2395C9.98684 18.2395 7.92969 20.9919 7.92969 26.1824C7.92969 30.2204 12.4821 36.668 19.825 36.668C27.1678 36.668 33.063 30.9729 33.063 25.9062C33.063 23.687 32.3106 20.8204 30.6821 19.2585C30.6821 19.2585 30.9011 23.687 28.7106 23.4775C28.7106 23.4775 30.5201 17.6967 28.625 15.049C28.625 15.049 27.7106 17.9062 26.7391 17.9919Z" fill="url(#paint0_linear_1122_2553)"/>
<path d="M26.7465 14.0212C28.8797 10.0879 23.594 9.54503 23.5845 7.12598C23.5845 7.12598 22.6512 9.62121 24.8799 11.326C26.6989 12.7069 26.7465 14.0212 26.7465 14.0212Z" fill="url(#paint1_linear_1122_2553)"/>
<path d="M15.5283 6.49707C14.7188 7.29707 15.8331 10.6018 13.2998 11.9066C13.2998 11.9066 12.4426 8.27802 15.5283 6.49707Z" fill="url(#paint2_linear_1122_2553)"/>
<path opacity="0.5" d="M9.59635 19.5635C8.89159 20.7732 7.92969 23.0112 7.92969 26.1827C7.92969 29.7255 12.444 36.2399 19.825 36.2399C27.0345 36.2399 32.6345 30.6874 32.6345 25.916C32.6345 24.1922 32.1583 21.9922 31.1011 20.4302C31.025 21.4112 30.7868 22.7445 30.0535 23.4399C29.6725 23.8017 29.1963 23.9635 28.6725 23.9065L28.1391 23.8589L28.3011 23.354C28.3201 23.3065 29.7011 18.7922 28.7011 16.116C28.3011 17.0969 27.6155 18.3635 26.7773 18.4302L26.3011 18.4684L26.3106 17.9922C26.3488 16.0207 25.1391 14.9731 23.7391 13.7636C21.7391 12.0303 19.4821 10.0684 20.3106 5.0874C18.9201 5.90645 16.2154 8.1636 16.8916 12.8207C17.2345 15.1541 16.4249 16.8874 16.3964 16.9636L16.3011 17.1635L16.0916 17.2017C15.6916 17.2779 15.2725 17.116 14.8916 16.7541C14.3773 16.2493 13.9106 15.2969 13.8916 14.0017C13.1106 14.8017 12.0345 16.1827 12.0345 17.754C12.0345 20.335 13.2916 23.116 13.3011 23.1445L13.6535 23.9255L12.8154 23.7445C10.6249 23.2684 9.80589 21.2302 9.59635 19.5635Z" fill="url(#paint3_linear_1122_2553)"/>
<path d="M23.5854 7.12598C23.3949 8.56408 23.9664 10.6307 24.8806 11.326C25.7187 11.9641 26.6616 13.0593 26.7377 14.0212C28.1664 11.2212 26.1567 10.1831 25.0044 9.77359C24.5187 9.60216 23.6234 8.60216 23.5854 7.12598Z" fill="url(#paint4_radial_1122_2553)"/>
<path d="M19.193 6.7168C16.0311 11.6692 20.136 16.8978 18.0216 20.031C15.9073 23.1644 13.7645 20.2692 13.6216 18.3072C13.6216 18.3072 13.6407 24.6502 16.774 27.1549C19.9073 29.6597 10.7454 29.1169 9.48828 26.0597C9.48828 26.0597 9.48828 36.2405 19.8216 36.2405C30.155 36.2405 31.8788 26.7644 31.8788 26.7644C31.8788 26.7644 28.1168 29.9739 25.6121 27.4692C25.6121 27.4692 27.4883 24.1835 27.9645 20.812C27.9645 20.812 26.6693 21.631 24.6788 21.3169C24.6788 21.3169 25.7835 16.5835 23.5263 15.0311C20.6311 13.0406 18.1835 8.29776 19.193 6.7168Z" fill="url(#paint5_linear_1122_2553)"/>
<path d="M19.9862 12.5444C18.329 14.7254 21.5577 20.3254 18.1672 22.5444C16.2909 23.773 15.2148 22.2969 15.2148 22.2969C15.2148 22.2969 15.7195 24.5635 17.7385 26.5825C19.7577 28.6015 14.7005 31.3349 10.5957 27.8015C10.5957 27.8015 12.0052 36.2874 21.5577 34.8587C32.1005 33.2874 31.3195 25.4492 31.3195 25.4492C31.3195 25.4492 28.4623 29.9444 24.3957 27.792C24.3957 27.792 26.9577 24.2207 26.9577 22.173C26.9577 22.173 25.2243 23.2015 23.2433 22.211C23.2433 22.211 24.1862 17.4492 23.0623 16.7349C20.3672 15.0111 19.9862 12.5444 19.9862 12.5444Z" fill="url(#paint6_linear_1122_2553)"/>
<path opacity="0.5" d="M26.7391 17.9919C26.844 12.7252 18.844 13.449 20.9011 4.28711C20.9011 4.28711 15.5297 6.40141 16.4726 12.8871C16.7964 15.1157 16.0154 16.7824 16.0154 16.7824C15.2249 16.9443 13.9964 15.3728 14.4249 12.9443C14.4249 12.9443 11.6059 15.049 11.6059 17.7537C11.6059 20.4585 12.9106 23.3252 12.9106 23.3252C9.66302 22.6204 9.98684 18.2395 9.98684 18.2395C9.98684 18.2395 7.92969 20.9919 7.92969 26.1824C7.92969 30.2204 12.4821 36.668 19.825 36.668C27.1678 36.668 33.063 30.9729 33.063 25.9062C33.063 23.687 32.3106 20.8204 30.6821 19.2585C30.6821 19.2585 30.9011 23.687 28.7106 23.4775C28.7106 23.4775 30.5201 17.6967 28.625 15.049C28.625 15.049 27.7106 17.9062 26.7391 17.9919Z" fill="url(#paint7_radial_1122_2553)"/>
<path opacity="0.5" d="M26.7391 17.9919C26.844 12.7252 18.844 13.449 20.9011 4.28711C20.9011 4.28711 15.5297 6.40141 16.4726 12.8871C16.7964 15.1157 16.0154 16.7824 16.0154 16.7824C15.2249 16.9443 13.9964 15.3728 14.4249 12.9443C14.4249 12.9443 11.6059 15.049 11.6059 17.7537C11.6059 20.4585 12.9106 23.3252 12.9106 23.3252C9.66302 22.6204 9.98684 18.2395 9.98684 18.2395C9.98684 18.2395 7.92969 20.9919 7.92969 26.1824C7.92969 30.2204 12.4821 36.668 19.825 36.668C27.1678 36.668 33.063 30.9729 33.063 25.9062C33.063 23.687 32.3106 20.8204 30.6821 19.2585C30.6821 19.2585 30.9011 23.687 28.7106 23.4775C28.7106 23.4775 30.5201 17.6967 28.625 15.049C28.625 15.049 27.7106 17.9062 26.7391 17.9919Z" fill="url(#paint8_radial_1122_2553)"/>
<path d="M8.5752 23.9732C8.79425 29.3541 13.2228 35.8017 20.1467 35.8017C27.0704 35.8017 30.5275 28.4971 30.7467 24.2207C30.7467 24.2207 29.4514 26.7351 26.5275 27.2399C23.6037 27.7446 26.7275 22.2112 24.68 18.9351C24.68 18.9351 22.8704 24.6399 20.299 24.8494C17.7275 25.0589 15.5466 21.0779 15.5466 18.9351C15.5466 18.9351 13.9657 22.7922 14.3561 25.8589C14.9561 30.5161 8.5752 23.9732 8.5752 23.9732Z" fill="url(#paint9_radial_1122_2553)"/>
<path opacity="0.5" d="M26.7391 17.9919C26.844 12.7252 18.844 13.449 20.9011 4.28711C20.9011 4.28711 15.5297 6.40141 16.4726 12.8871C16.7964 15.1157 16.0154 16.7824 16.0154 16.7824C15.2249 16.9443 13.9964 15.3728 14.4249 12.9443C14.4249 12.9443 11.6059 15.049 11.6059 17.7537C11.6059 20.4585 12.9106 23.3252 12.9106 23.3252C9.66302 22.6204 9.98684 18.2395 9.98684 18.2395C9.98684 18.2395 7.92969 20.9919 7.92969 26.1824C7.92969 30.2204 12.4821 36.668 19.825 36.668C27.1678 36.668 33.063 30.9729 33.063 25.9062C33.063 23.687 32.3106 20.8204 30.6821 19.2585C30.6821 19.2585 30.9011 23.687 28.7106 23.4775C28.7106 23.4775 30.5201 17.6967 28.625 15.049C28.625 15.049 27.7106 17.9062 26.7391 17.9919Z" fill="url(#paint10_radial_1122_2553)"/>
<path opacity="0.5" d="M26.7465 14.0212C28.8797 10.0879 23.594 9.54503 23.5845 7.12598C23.5845 7.12598 22.6512 9.62121 24.8799 11.326C26.6989 12.7069 26.7465 14.0212 26.7465 14.0212Z" fill="url(#paint11_radial_1122_2553)"/>
<path d="M15.5283 6.49707C14.7283 7.29707 15.2426 9.82087 13.2998 11.9066C13.2998 11.9066 12.4426 8.27802 15.5283 6.49707Z" fill="url(#paint12_radial_1122_2553)"/>
<path opacity="0.5" d="M15.5283 6.49707C14.7188 7.29707 15.8331 10.6018 13.2998 11.9066C13.2998 11.9066 12.4426 8.27802 15.5283 6.49707Z" fill="url(#paint13_radial_1122_2553)"/>
<path opacity="0.5" d="M26.7391 17.9919C26.844 12.7252 18.844 13.449 20.9011 4.28711C20.9011 4.28711 15.5297 6.40141 16.4726 12.8871C16.7964 15.1157 16.0154 16.7824 16.0154 16.7824C15.2249 16.9443 13.9964 15.3728 14.4249 12.9443C14.4249 12.9443 11.6059 15.049 11.6059 17.7537C11.6059 20.4585 12.9106 23.3252 12.9106 23.3252C9.66302 22.6204 9.98684 18.2395 9.98684 18.2395C9.98684 18.2395 7.92969 20.9919 7.92969 26.1824C7.92969 30.2204 12.4821 36.668 19.825 36.668C27.1678 36.668 33.063 30.9729 33.063 25.9062C33.063 23.687 32.3106 20.8204 30.6821 19.2585C30.6821 19.2585 30.9011 23.687 28.7106 23.4775C28.7106 23.4775 30.5201 17.6967 28.625 15.049C28.625 15.049 27.7106 17.9062 26.7391 17.9919Z" fill="url(#paint14_radial_1122_2553)"/>
<path opacity="0.25" d="M26.7391 17.9919C26.844 12.7252 18.844 13.449 20.9011 4.28711C20.9011 4.28711 15.5297 6.40141 16.4726 12.8871C16.7964 15.1157 16.0154 16.7824 16.0154 16.7824C15.2249 16.9443 13.9964 15.3728 14.4249 12.9443C14.4249 12.9443 11.6059 15.049 11.6059 17.7537C11.6059 20.4585 12.9106 23.3252 12.9106 23.3252C9.66302 22.6204 9.98684 18.2395 9.98684 18.2395C9.98684 18.2395 7.92969 20.9919 7.92969 26.1824C7.92969 30.2204 12.4821 36.668 19.825 36.668C27.1678 36.668 33.063 30.9729 33.063 25.9062C33.063 23.687 32.3106 20.8204 30.6821 19.2585C30.6821 19.2585 30.9011 23.687 28.7106 23.4775C28.7106 23.4775 30.5201 17.6967 28.625 15.049C28.625 15.049 27.7106 17.9062 26.7391 17.9919Z" fill="url(#paint15_radial_1122_2553)"/>
<path opacity="0.25" d="M26.7391 17.9919C26.844 12.7252 18.844 13.449 20.9011 4.28711C20.9011 4.28711 15.5297 6.40141 16.4726 12.8871C16.7964 15.1157 16.0154 16.7824 16.0154 16.7824C15.2249 16.9443 13.9964 15.3728 14.4249 12.9443C14.4249 12.9443 11.6059 15.049 11.6059 17.7537C11.6059 20.4585 12.9106 23.3252 12.9106 23.3252C9.66302 22.6204 9.98684 18.2395 9.98684 18.2395C9.98684 18.2395 7.92969 20.9919 7.92969 26.1824C7.92969 30.2204 12.4821 36.668 19.825 36.668C27.1678 36.668 33.063 30.9729 33.063 25.9062C33.063 23.687 32.3106 20.8204 30.6821 19.2585C30.6821 19.2585 30.9011 23.687 28.7106 23.4775C28.7106 23.4775 30.5201 17.6967 28.625 15.049C28.625 15.049 27.7106 17.9062 26.7391 17.9919Z" fill="url(#paint16_radial_1122_2553)"/>
<path opacity="0.25" d="M26.863 17.9761C26.9685 12.6748 18.9158 13.4034 20.9865 4.18115C20.9865 4.18115 15.5797 6.30937 16.5288 12.8378C16.8547 15.081 16.0686 16.7587 16.0686 16.7587C15.273 16.9216 14.0363 15.3398 14.4677 12.8953C14.4677 12.8953 11.6301 15.0139 11.6301 17.7364C11.6301 20.459 12.9434 23.3446 12.9434 23.3446C9.67443 22.6351 10.0004 18.2254 10.0004 18.2254C10.0004 18.2254 7.92969 20.9959 7.92969 26.2206C7.92969 30.2851 12.512 36.7752 19.9033 36.7752C27.2945 36.7752 33.2284 31.0426 33.2284 25.9426C33.2284 23.7088 32.4711 20.8233 30.8319 19.2511C30.8319 19.2511 31.0524 23.7088 28.8474 23.4979C28.8474 23.4979 30.6689 17.679 28.7612 15.0139C28.7612 15.0139 27.8409 17.8899 26.863 17.9761Z" fill="url(#paint17_radial_1122_2553)"/>
<defs>
<linearGradient id="paint0_linear_1122_2553" x1="22.107" y1="37.563" x2="16.2687" y2="-4.74661" gradientUnits="userSpaceOnUse">
<stop stop-color="#FF0000"/>
<stop offset="0.2317" stop-color="#FF1500"/>
<stop offset="0.7367" stop-color="#FF3D00"/>
<stop offset="0.9987" stop-color="#FF4C00"/>
</linearGradient>
<linearGradient id="paint1_linear_1122_2553" x1="28.9459" y1="36.6199" x2="23.1075" y2="-5.68986" gradientUnits="userSpaceOnUse">
<stop stop-color="#FF0000"/>
<stop offset="0.2317" stop-color="#FF1500"/>
<stop offset="0.7367" stop-color="#FF3D00"/>
<stop offset="0.9987" stop-color="#FF4C00"/>
</linearGradient>
<linearGradient id="paint2_linear_1122_2553" x1="18.3912" y1="38.076" x2="12.5528" y2="-4.23363" gradientUnits="userSpaceOnUse">
<stop stop-color="#FF0000"/>
<stop offset="0.2317" stop-color="#FF1500"/>
<stop offset="0.7367" stop-color="#FF3D00"/>
<stop offset="0.9987" stop-color="#FF4C00"/>
</linearGradient>
<linearGradient id="paint3_linear_1122_2553" x1="21.9496" y1="30.3564" x2="9.19184" y2="-6.07897" gradientUnits="userSpaceOnUse">
<stop stop-color="#FF8000"/>
<stop offset="0.6388" stop-color="#FF5B00"/>
<stop offset="0.9987" stop-color="#FF4C00"/>
</linearGradient>
<radialGradient id="paint4_radial_1122_2553" cx="0" cy="0" r="1" gradientUnits="userSpaceOnUse" gradientTransform="translate(27.4121 0.704472) scale(17.001 17.001)">
<stop offset="0.00134333" stop-color="#FFED1C" stop-opacity="0.6"/>
<stop offset="0.9477" stop-color="#FFED1C" stop-opacity="0.0264782"/>
<stop offset="0.9914" stop-color="#FFED1C" stop-opacity="0"/>
</radialGradient>
<linearGradient id="paint5_linear_1122_2553" x1="16.9923" y1="6.04356" x2="21.6053" y2="31.9195" gradientUnits="userSpaceOnUse">
<stop stop-color="#FF8000"/>
<stop offset="0.022669" stop-color="#FE7F02" stop-opacity="0.9773"/>
<stop offset="0.6663" stop-color="#ED582A" stop-opacity="0.3337"/>
<stop offset="1" stop-color="#E74939" stop-opacity="0"/>
</linearGradient>
<linearGradient id="paint6_linear_1122_2553" x1="20.5772" y1="34.0042" x2="21.5742" y2="15.8354" gradientUnits="userSpaceOnUse">
<stop stop-color="#FFBC47"/>
<stop offset="0.1869" stop-color="#FFB137" stop-opacity="0.8131"/>
<stop offset="0.7223" stop-color="#FF940F" stop-opacity="0.2777"/>
<stop offset="1" stop-color="#FF8900" stop-opacity="0"/>
</linearGradient>
<radialGradient id="paint7_radial_1122_2553" cx="0" cy="0" r="1" gradientUnits="userSpaceOnUse" gradientTransform="translate(20.33 29.1009) scale(13.1512 10.6761)">
<stop offset="0.00134333" stop-color="#FFBC47"/>
<stop offset="0.2941" stop-color="#FFBF4B" stop-opacity="0.7068"/>
<stop offset="0.5624" stop-color="#FEC656" stop-opacity="0.4382"/>
<stop offset="0.8201" stop-color="#FCD368" stop-opacity="0.1801"/>
<stop offset="1" stop-color="#FBE07A" stop-opacity="0"/>
</radialGradient>
<radialGradient id="paint8_radial_1122_2553" cx="0" cy="0" r="1" gradientUnits="userSpaceOnUse" gradientTransform="translate(20.33 28.5602) scale(12.746 10.3472)">
<stop offset="0.00134333" stop-color="white"/>
<stop offset="1" stop-color="white" stop-opacity="0"/>
</radialGradient>
<radialGradient id="paint9_radial_1122_2553" cx="0" cy="0" r="1" gradientUnits="userSpaceOnUse" gradientTransform="translate(14.7389 30.9116) scale(15.6575 18.23)">
<stop offset="0.00134333" stop-color="#FFED1C" stop-opacity="0.6"/>
<stop offset="0.9477" stop-color="#FFED1C" stop-opacity="0.0264782"/>
<stop offset="0.9914" stop-color="#FFED1C" stop-opacity="0"/>
</radialGradient>
<radialGradient id="paint10_radial_1122_2553" cx="0" cy="0" r="1" gradientUnits="userSpaceOnUse" gradientTransform="translate(20.3306 28.5589) rotate(92.8876) scale(4.94853 4.017)">
<stop offset="0.00134333" stop-color="white"/>
<stop offset="1" stop-color="white" stop-opacity="0"/>
</radialGradient>
<radialGradient id="paint11_radial_1122_2553" cx="0" cy="0" r="1" gradientUnits="userSpaceOnUse" gradientTransform="translate(23.0637 7.11694) scale(5.61697)">
<stop offset="0.00134333" stop-color="#FFED1C"/>
<stop offset="0.1997" stop-color="#FFEE2B" stop-opacity="0.8013"/>
<stop offset="0.5839" stop-color="#FFF254" stop-opacity="0.4167"/>
<stop offset="1" stop-color="#FFF686" stop-opacity="0"/>
</radialGradient>
<radialGradient id="paint12_radial_1122_2553" cx="0" cy="0" r="1" gradientUnits="userSpaceOnUse" gradientTransform="translate(13.8026 9.81945) rotate(-56.4116) scale(4.54987 1.03329)">
<stop offset="0.00134333" stop-color="#FFED1C" stop-opacity="0.6"/>
<stop offset="0.9477" stop-color="#FFED1C" stop-opacity="0.0264782"/>
<stop offset="0.9914" stop-color="#FFED1C" stop-opacity="0"/>
</radialGradient>
<radialGradient id="paint13_radial_1122_2553" cx="0" cy="0" r="1" gradientUnits="userSpaceOnUse" gradientTransform="translate(14.7036 6.25162) rotate(95.0573) scale(4.08828 1.645)">
<stop offset="0.00134333" stop-color="#FFED1C"/>
<stop offset="0.1997" stop-color="#FFEE2B" stop-opacity="0.8013"/>
<stop offset="0.5839" stop-color="#FFF254" stop-opacity="0.4167"/>
<stop offset="1" stop-color="#FFF686" stop-opacity="0"/>
</radialGradient>
<radialGradient id="paint14_radial_1122_2553" cx="0" cy="0" r="1" gradientUnits="userSpaceOnUse" gradientTransform="translate(21.818 6.39539) scale(17.5267 17.5267)">
<stop offset="0.00134333" stop-color="#FF4C00"/>
<stop offset="0.135" stop-color="#FF5B0C" stop-opacity="0.8661"/>
<stop offset="0.3941" stop-color="#FF842C" stop-opacity="0.6067"/>
<stop offset="0.7491" stop-color="#FFC45F" stop-opacity="0.2512"/>
<stop offset="1" stop-color="#FFF686" stop-opacity="0"/>
</radialGradient>
<radialGradient id="paint15_radial_1122_2553" cx="0" cy="0" r="1" gradientUnits="userSpaceOnUse" gradientTransform="translate(29.7895 20.5947) scale(9.30287 9.30287)">
<stop offset="0.00134333" stop-color="#FFED1C"/>
<stop offset="0.1997" stop-color="#FFEE2B" stop-opacity="0.8013"/>
<stop offset="0.5839" stop-color="#FFF254" stop-opacity="0.4167"/>
<stop offset="1" stop-color="#FFF686" stop-opacity="0"/>
</radialGradient>
<radialGradient id="paint16_radial_1122_2553" cx="0" cy="0" r="1" gradientUnits="userSpaceOnUse" gradientTransform="translate(10.7463 23.9104) scale(9.91567 9.91567)">
<stop offset="0.00134333" stop-color="#FFED1C"/>
<stop offset="0.1997" stop-color="#FFEE2B" stop-opacity="0.8013"/>
<stop offset="0.5839" stop-color="#FFF254" stop-opacity="0.4167"/>
<stop offset="1" stop-color="#FFF686" stop-opacity="0"/>
</radialGradient>
<radialGradient id="paint17_radial_1122_2553" cx="0" cy="0" r="1" gradientUnits="userSpaceOnUse" gradientTransform="translate(20.2626 21.9162) rotate(86.1102) scale(17.0966 10.393)">
<stop stop-color="#FF4C00" stop-opacity="0"/>
<stop offset="0.9874" stop-color="#FF4C00" stop-opacity="0.9888"/>
<stop offset="0.9987" stop-color="#FF4C00"/>
</radialGradient>
</defs>
</svg>
