<svg width="66" height="66" viewBox="0 0 66 66" fill="none" xmlns="http://www.w3.org/2000/svg">
<path d="M0.740234 0.631836H65.3802V40.2718C65.3802 54.079 54.1874 65.2718 40.3802 65.2718H0.740234V0.631836Z" fill="#CDCDFF"/>
<path d="M33.0596 43.3688V51.7021M29.9346 14.2021H17.4346C16.6058 14.2021 15.8109 14.5314 15.2249 15.1174C14.6388 15.7035 14.3096 16.4983 14.3096 17.3271V40.2438C14.3096 41.0726 14.6388 41.8675 15.2249 42.4535C15.8109 43.0396 16.6058 43.3688 17.4346 43.3688H48.6846C49.5134 43.3688 50.3082 43.0396 50.8943 42.4535C51.4803 41.8675 51.8096 41.0726 51.8096 40.2438V29.8271L29.9346 14.2021Z" stroke="#3A39F7" stroke-width="2.16667" stroke-linecap="round" stroke-linejoin="round"/>
<path d="M22.6436 51.7021H43.4769M41.3936 14.2021L37.2269 18.3688L41.3936 22.5355V14.2021ZM47.6436 14.2021L51.8102 18.3688L47.6436 22.5355V14.2021Z" stroke="#3A39F7" stroke-width="2.16667" stroke-linecap="round" stroke-linejoin="round"/>
</svg>
