<svg width="139" height="139" viewBox="0 0 139 139" fill="none" xmlns="http://www.w3.org/2000/svg">
<path d="M64.2514 111.552C78.298 102.809 90.0357 90.5944 93.2746 73.5944C96.1979 58.25 89.5412 44.8438 72.1472 48.3919C63.9132 50.0714 55.2733 57.5667 55.4484 66.5295C55.6436 76.5147 68.5664 74.4085 73.8427 70.397C86.1662 61.0278 90.9448 42.3006 81.7926 28.0194C70.9543 11.1071 55.4891 24.8133 55.6091 24.8802" stroke="#00334F" stroke-width="2.352" stroke-miterlimit="1.5" stroke-linecap="round" stroke-linejoin="round"/>
<path d="M82.0905 116.195C80.6787 115.031 78.9411 114.578 77.2303 114.037C71.613 112.26 64.9952 112.142 59.5809 114.777C64.2583 110.231 68.7986 102.751 67.2614 96.0715" stroke="#00334F" stroke-width="2.352" stroke-miterlimit="1.5" stroke-linecap="round" stroke-linejoin="round"/>
</svg>
