<svg width="1316" height="1117" viewBox="0 0 1316 1117" fill="none" xmlns="http://www.w3.org/2000/svg">
<path fill-rule="evenodd" clip-rule="evenodd" d="M987 519H868.56V-139H855.4V519H802.76V-139H789.6V519H736.96V-139H723.8V519H671.16V-139H658V519H0V532.16H658V584.8H0V597.96H658V650.6H0V663.76H658V716.4H0V729.56H658V848C658 1029.7 805.298 1177 987 1177C1168.7 1177 1316 1029.7 1316 848C1316 666.298 1168.7 519 987 519ZM723.8 584.8H671.16V532.16H723.8V584.8ZM736.96 584.8H789.6V532.16H736.96V584.8ZM802.76 584.8H855.4V532.16H802.76V584.8ZM868.56 584.8V532.16H987C1161.43 532.16 1302.84 673.566 1302.84 848C1302.84 1022.43 1161.43 1163.84 987 1163.84C812.566 1163.84 671.16 1022.43 671.16 848V729.56H723.8V848C723.8 993.361 841.639 1111.2 987 1111.2C1132.36 1111.2 1250.2 993.361 1250.2 848C1250.2 702.639 1132.36 584.8 987 584.8H868.56ZM723.8 716.4H671.16V663.76H723.8V716.4ZM736.96 729.56V848C736.96 986.093 848.907 1098.04 987 1098.04C1125.09 1098.04 1237.04 986.093 1237.04 848C1237.04 709.907 1125.09 597.96 987 597.96H868.56V650.6H987C1096.02 650.6 1184.4 738.979 1184.4 848C1184.4 957.021 1096.02 1045.4 987 1045.4C877.979 1045.4 789.6 957.021 789.6 848V729.56H736.96ZM802.76 650.6H855.4V597.96H802.76V650.6ZM789.6 597.96V650.6H736.96V597.96H789.6ZM789.6 663.76V716.4H736.96V663.76H789.6ZM802.76 848V729.56H855.4V848C855.4 920.681 914.319 979.6 987 979.6C1059.68 979.6 1118.6 920.681 1118.6 848C1118.6 775.319 1059.68 716.4 987 716.4H868.56V663.76H987C1088.75 663.76 1171.24 746.247 1171.24 848C1171.24 949.753 1088.75 1032.24 987 1032.24C885.247 1032.24 802.76 949.753 802.76 848ZM868.56 848C868.56 913.413 921.587 966.44 987 966.44C1052.41 966.44 1105.44 913.413 1105.44 848C1105.44 782.587 1052.41 729.56 987 729.56H868.56V848ZM855.4 716.4V663.76H802.76V716.4H855.4ZM723.8 650.6H671.16V597.96H723.8V650.6Z" fill="url(#paint0_linear_788_3093)" fill-opacity="0.2"/>
<defs>
<linearGradient id="paint0_linear_788_3093" x1="1197.56" y1="1104.62" x2="5.46411e-05" y2="-165.32" gradientUnits="userSpaceOnUse">
<stop stop-color="#00334F" stop-opacity="0.6"/>
<stop offset="1" stop-color="#00334F" stop-opacity="0.75"/>
</linearGradient>
</defs>
</svg>
