<svg width="111" height="75" viewBox="0 0 111 75" fill="none" xmlns="http://www.w3.org/2000/svg">
<path fill-rule="evenodd" clip-rule="evenodd" d="M78.0987 2.754C55.2451 -1.11906 29.5078 0.328353 12.3834 13.5141C-5.26352 27.1022 -1.87434 50.2621 18.9573 56.5252C22.0652 57.4598 24.9929 58.5409 28.6995 58.7975C28.9134 58.8124 34.7046 73.2935 35.1463 73.3559C35.4962 73.4055 48.4625 60.2402 48.6388 60.2428C51.5421 60.285 54.4636 60.0295 57.3818 59.7629C71.9057 58.4361 86.3453 54.4812 97.9883 48.097C123.596 34.0556 103.422 7.74505 82.4029 4.17588" fill="white"/>
<path d="M78.0987 2.754C55.2451 -1.11906 29.5078 0.328352 12.3834 13.5141C-5.26352 27.1022 -1.87434 50.2621 18.9573 56.5252C22.0652 57.4598 24.9929 58.5409 28.6995 58.7975C28.9134 58.8124 34.7046 73.2935 35.1463 73.3559C35.4962 73.4055 48.4625 60.2402 48.6388 60.2428C51.5421 60.285 54.4636 60.0295 57.3818 59.7629C71.9057 58.4361 86.3453 54.4812 97.9883 48.097C123.596 34.0556 103.422 7.74505 82.4029 4.17588" stroke="black" stroke-width="1.53742" stroke-miterlimit="1.5" stroke-linecap="round" stroke-linejoin="round"/>
<path d="M49.4434 37.7908V37.5614C49.4595 36.0643 49.6084 34.873 49.8901 33.9876C50.1799 33.1022 50.5904 32.3858 51.1216 31.8384C51.6529 31.2911 52.2928 30.792 53.0414 30.3413C53.5243 30.0354 53.959 29.6933 54.3453 29.315C54.7317 28.9367 55.0376 28.502 55.263 28.011C55.4883 27.52 55.601 26.9767 55.601 26.381C55.601 25.6647 55.432 25.0449 55.0939 24.5217C54.7559 23.9985 54.3051 23.596 53.7417 23.3143C53.1863 23.0245 52.5665 22.8796 51.8823 22.8796C51.2625 22.8796 50.6709 23.0084 50.1074 23.266C49.544 23.5236 49.0771 23.926 48.7069 24.4734C48.3366 25.0127 48.1233 25.7089 48.0669 26.5621H44.3965C44.4528 25.1133 44.8191 23.8898 45.4952 22.8917C46.1713 21.8855 47.0648 21.1249 48.1756 20.6097C49.2944 20.0946 50.53 19.837 51.8823 19.837C53.3633 19.837 54.6593 20.1147 55.7701 20.6701C56.8809 21.2174 57.7421 21.9861 58.3539 22.9762C58.9737 23.9582 59.2836 25.1052 59.2836 26.4173C59.2836 27.3188 59.1427 28.1317 58.861 28.8562C58.5793 29.5726 58.1768 30.2125 57.6536 30.7759C57.1384 31.3394 56.5186 31.8384 55.7942 32.2731C55.11 32.6997 54.5546 33.1424 54.128 33.6012C53.7095 34.06 53.4036 34.6033 53.2104 35.2312C53.0172 35.859 52.9126 36.6358 52.8965 37.5614V37.7908H49.4434ZM51.2665 45.1317C50.6065 45.1317 50.039 44.8983 49.5641 44.4315C49.0892 43.9566 48.8517 43.3851 48.8517 42.717C48.8517 42.0569 49.0892 41.4935 49.5641 41.0266C50.039 40.5517 50.6065 40.3143 51.2665 40.3143C51.9185 40.3143 52.4819 40.5517 52.9569 41.0266C53.4398 41.4935 53.6813 42.0569 53.6813 42.717C53.6813 43.1597 53.5686 43.5662 53.3432 43.9364C53.1259 44.2987 52.8361 44.5884 52.4739 44.8058C52.1117 45.0231 51.7092 45.1317 51.2665 45.1317Z" fill="black"/>
</svg>
