<svg width="36" height="36" viewBox="0 0 36 36" fill="none" xmlns="http://www.w3.org/2000/svg">
<path d="M12.167 6.31169V23.8117C12.167 24.5852 12.4743 25.3271 13.0213 25.8741C13.5682 26.4211 14.3101 26.7284 15.0837 26.7284H26.7503C27.5239 26.7284 28.2657 26.4211 28.8127 25.8741C29.3597 25.3271 29.667 24.5852 29.667 23.8117V11.0396C29.6669 10.651 29.5893 10.2664 29.4385 9.90829C29.2877 9.55017 29.0669 9.22579 28.7891 8.95419L23.9547 4.22627C23.4098 3.69348 22.678 3.39511 21.916 3.39502H15.0837C14.3101 3.39502 13.5682 3.70231 13.0213 4.24929C12.4743 4.79627 12.167 5.53814 12.167 6.31169V6.31169Z" stroke="#135246" stroke-width="4.25136" stroke-linecap="round" stroke-linejoin="round"/>
<path d="M23.834 26.7287V29.6453C23.834 30.4189 23.5267 31.1608 22.9797 31.7077C22.4327 32.2547 21.6909 32.562 20.9173 32.562H9.25065C8.4771 32.562 7.73524 32.2547 7.18826 31.7077C6.64128 31.1608 6.33398 30.4189 6.33398 29.6453V13.6037C6.33398 12.8301 6.64128 12.0883 7.18826 11.5413C7.73524 10.9943 8.4771 10.687 9.25065 10.687H12.1673" stroke="#135246" stroke-width="4.25136" stroke-linecap="round" stroke-linejoin="round"/>
</svg>
