<svg width="48" height="48" viewBox="0 0 48 48" fill="none" xmlns="http://www.w3.org/2000/svg">
<rect width="48" height="48" rx="24" fill="#E3EBFD"/>
<path d="M31.3087 30.2751C31.3087 30.5751 31.242 30.8834 31.1003 31.1834C30.9587 31.4834 30.7753 31.7667 30.5337 32.0334C30.1253 32.4834 29.6753 32.8084 29.167 33.0167C28.667 33.2251 28.1253 33.3334 27.542 33.3334C26.692 33.3334 25.7837 33.1334 24.8253 32.7251C23.867 32.3167 22.9087 31.7667 21.9587 31.0751C21.0003 30.3751 20.092 29.6001 19.2253 28.7417C18.367 27.8751 17.592 26.9667 16.9003 26.0167C16.217 25.0667 15.667 24.1167 15.267 23.1751C14.867 22.2251 14.667 21.3167 14.667 20.4501C14.667 19.8834 14.767 19.3417 14.967 18.8417C15.167 18.3334 15.4837 17.8667 15.9253 17.4501C16.4587 16.9251 17.042 16.6667 17.6587 16.6667C17.892 16.6667 18.1253 16.7167 18.3337 16.8167C18.5503 16.9167 18.742 17.0667 18.892 17.2834L20.8253 20.0084C20.9753 20.2167 21.0837 20.4084 21.1587 20.5917C21.2337 20.7667 21.2753 20.9417 21.2753 21.1001C21.2753 21.3001 21.217 21.5001 21.1003 21.6917C20.992 21.8834 20.8337 22.0834 20.6337 22.2834L20.0003 22.9417C19.9087 23.0334 19.867 23.1417 19.867 23.2751C19.867 23.3417 19.8753 23.4001 19.892 23.4667C19.917 23.5334 19.942 23.5834 19.9587 23.6334C20.1087 23.9084 20.367 24.2667 20.7337 24.7001C21.1087 25.1334 21.5087 25.5751 21.942 26.0167C22.392 26.4584 22.8253 26.8667 23.267 27.2417C23.7003 27.6084 24.0587 27.8584 24.342 28.0084C24.3837 28.0251 24.4337 28.0501 24.492 28.0751C24.5587 28.1001 24.6253 28.1084 24.7003 28.1084C24.842 28.1084 24.9503 28.0584 25.042 27.9667L25.6753 27.3417C25.8837 27.1334 26.0837 26.9751 26.2753 26.8751C26.467 26.7584 26.6587 26.7001 26.867 26.7001C27.0253 26.7001 27.192 26.7334 27.3753 26.8084C27.5587 26.8834 27.7503 26.9917 27.9587 27.1334L30.717 29.0917C30.9337 29.2417 31.0837 29.4167 31.1753 29.6251C31.2587 29.8334 31.3087 30.0417 31.3087 30.2751Z" stroke="#00334F" stroke-width="1.2" stroke-miterlimit="10"/>
<path d="M28.4167 22.5002C28.4167 22.0002 28.025 21.2335 27.4417 20.6085C26.9083 20.0335 26.2 19.5835 25.5 19.5835" stroke="#00334F" stroke-width="1.2" stroke-linecap="round" stroke-linejoin="round"/>
<path d="M31.3333 22.5001C31.3333 19.2751 28.725 16.6667 25.5 16.6667" stroke="#00334F" stroke-width="1.2" stroke-linecap="round" stroke-linejoin="round"/>
</svg>
