<svg width="307" height="62" viewBox="0 0 307 62" fill="none" xmlns="http://www.w3.org/2000/svg">
<g clip-path="url(#clip0_788_3139)">
<path d="M35.612 12.034L17.806 23.3796L35.612 34.7251L17.806 46.0706L0 34.6638L17.806 23.3182L0 12.034L17.806 0.688477L35.612 12.034ZM17.7139 49.7196L35.5199 38.3741L53.3259 49.7196L35.5199 61.0651L17.7139 49.7196ZM35.612 34.6638L53.418 23.3182L35.612 12.034L53.3259 0.688477L71.1319 12.034L53.3259 23.3796L71.1319 34.7251L53.3259 46.0706L35.612 34.6638Z" fill="#0061FF"/>
<path d="M85.1006 12.0343H99.4989C108.678 12.0343 116.261 17.3391 116.261 29.4513V31.9963C116.261 44.2005 109.169 49.6893 99.7752 49.6893H85.1006V12.0343ZM93.144 18.8723V42.8206H99.3147C104.534 42.8206 108.033 39.4169 108.033 31.843V29.8499C108.033 22.276 104.349 18.8723 99.0384 18.8723H93.144ZM120.528 19.2403H126.975L128.019 26.3236C129.247 21.5094 132.379 18.9336 138.058 18.9336H140.054V27.0595H136.738C130.199 27.0595 128.602 29.3286 128.602 35.768V49.7812H120.651V19.2403H120.528ZM141.65 35.124V34.2655C141.65 24.0545 148.189 18.4737 157.092 18.4737C166.179 18.4737 172.534 24.0545 172.534 34.2655V35.124C172.534 45.151 166.363 50.5478 157.092 50.5478C147.237 50.4558 141.65 45.1817 141.65 35.124ZM164.399 35.032V34.2655C164.399 28.5927 161.544 25.189 157 25.189C152.548 25.189 149.601 28.3167 149.601 34.2655V35.032C149.601 40.5208 152.456 43.6485 157 43.6485C161.544 43.5565 164.399 40.5208 164.399 35.032ZM176.709 19.2403H183.341L184.108 25.005C185.704 21.1414 189.112 18.4737 194.147 18.4737C201.914 18.4737 207.041 24.0545 207.041 34.3881V35.2467C207.041 45.2737 201.361 50.5785 194.147 50.5785C189.327 50.5785 186.011 48.4014 184.384 44.9057V60.3295H176.617L176.709 19.2403ZM198.967 35.032V34.3574C198.967 28.2861 195.835 25.281 191.66 25.281C187.209 25.281 184.262 28.6847 184.262 34.3574V34.9401C184.262 40.3369 187.117 43.7405 191.568 43.7405C196.142 43.6485 198.967 40.7355 198.967 35.032ZM218.799 44.1391L218.124 49.7199H211.308V9.0293H219.075V24.6371C220.795 20.6508 224.202 18.4737 229.022 18.4737C236.329 18.5657 241.732 23.5945 241.732 33.7135V34.6641C241.732 44.7831 236.605 50.5785 228.838 50.5785C223.711 50.4558 220.395 48.0947 218.799 44.1391ZM233.566 34.6641V33.8975C233.566 28.3167 230.526 25.189 226.259 25.189C221.9 25.189 218.86 28.6847 218.86 33.9895V34.6641C218.86 40.3369 221.808 43.6485 226.167 43.6485C230.833 43.6485 233.566 40.7355 233.566 34.6641ZM245.14 35.124V34.2655C245.14 24.0545 251.679 18.4737 260.582 18.4737C269.669 18.4737 276.024 24.0545 276.024 34.2655V35.124C276.024 45.151 269.761 50.5478 260.582 50.5478C250.727 50.4558 245.14 45.1817 245.14 35.124ZM267.95 35.032V34.2655C267.95 28.5927 265.095 25.189 260.551 25.189C256.1 25.189 253.152 28.3167 253.152 34.2655V35.032C253.152 40.5208 256.007 43.6485 260.551 43.6485C265.125 43.5565 267.95 40.5208 267.95 35.032ZM286.431 33.8975L275.717 19.2403H284.896L291.067 28.4087L297.33 19.2403H306.417L295.549 33.8055L307 49.7199H298.005L291.005 39.6009L284.19 49.7199H274.796L286.431 33.8975Z" fill="black"/>
</g>
<defs>
<clipPath id="clip0_788_3139">
<rect width="307" height="60.3767" fill="white" transform="translate(0 0.688477)"/>
</clipPath>
</defs>
</svg>
