<svg width="36" height="36" viewBox="0 0 36 36" fill="none" xmlns="http://www.w3.org/2000/svg">
<g clip-path="url(#clip0_1122_2575)">
<path d="M32.8278 26.8784C34.4988 25.0259 35.5014 22.7017 35.5014 20.1655C35.5014 14.6968 30.8529 10.1782 24.7948 9.37158C22.8807 5.43408 18.3842 2.66553 13.1403 2.66553C6.1585 2.66553 0.501386 7.56006 0.501386 13.603C0.501386 16.1323 1.50399 18.4565 3.175 20.3159C2.24531 22.4146 0.908504 24.0415 0.884198 24.0688C0.501386 24.5269 0.392011 25.1968 0.616837 25.7778C0.835587 26.3589 1.346 26.7349 1.90503 26.7349C5.1559 26.7349 7.7809 25.354 9.51267 24.0825C10.0717 24.2261 10.649 24.3355 11.2384 24.4175C13.1464 28.3413 17.6247 31.103 22.8625 31.103C24.1264 31.103 25.3417 30.939 26.4962 30.6382C28.2279 31.9028 30.8469 33.2905 34.1038 33.2905C34.6628 33.2905 35.1672 32.9146 35.392 32.3335C35.6108 31.7524 35.5075 31.0825 35.1246 30.6245C35.1003 30.604 33.7575 28.9771 32.8278 26.8784ZM8.95972 20.5688L7.92066 21.3276C7.06389 21.9497 6.18889 22.4419 5.30173 22.7905C5.4658 22.4692 5.62986 22.1274 5.78784 21.7788L6.72968 19.6528L5.22274 17.978C4.40243 17.062 3.41805 15.5649 3.41805 13.603C3.41805 9.45361 7.87205 5.94678 13.1403 5.94678C18.4085 5.94678 22.8625 9.45361 22.8625 13.603C22.8625 17.7524 18.4085 21.2593 13.1403 21.2593C12.1377 21.2593 11.1351 21.1294 10.1628 20.8765L8.95972 20.5688ZM30.78 24.5405L29.2792 26.2085L30.221 28.3345C30.379 28.6831 30.5431 29.0249 30.7071 29.3462C29.82 28.9976 28.945 28.5054 28.0882 27.8833L27.0491 27.1245L25.8399 27.439C24.8677 27.6919 23.8651 27.8218 22.8625 27.8218C19.5812 27.8218 16.6524 26.4478 14.8842 24.4243C21.0396 23.686 25.7792 19.1333 25.7792 13.603C25.7792 13.3706 25.7549 13.145 25.7366 12.9194C29.6498 13.9106 32.5847 16.8022 32.5847 20.1655C32.5847 22.1274 31.6003 23.6245 30.78 24.5405Z" fill="#B81E36"/>
</g>
<defs>
<clipPath id="clip0_1122_2575">
<rect width="35" height="35" fill="white" transform="translate(0.5 0.478027)"/>
</clipPath>
</defs>
</svg>
