<svg width="66" height="65" viewBox="0 0 66 65" fill="none" xmlns="http://www.w3.org/2000/svg">
<path d="M0.480469 0.130859H65.1205V39.7709C65.1205 53.578 53.9276 64.7709 40.1205 64.7709H0.480469V0.130859Z" fill="#EFDBBC"/>
<path d="M24.6634 39.4256C24.4898 39.4256 24.3161 39.451 24.1505 39.5048C23.2088 39.8107 22.2185 40.0069 21.1759 40.0069C20.1333 40.0069 19.143 39.8107 18.2006 39.5048C18.035 39.451 17.8621 39.4256 17.6884 39.4256C13.1794 39.4256 9.52692 43.0933 9.5509 47.6082C9.56107 49.5161 11.1297 51.0506 13.0384 51.0506H29.3134C31.2221 51.0506 32.7908 49.5161 32.8009 47.6082C32.8249 43.0933 29.1725 39.4256 24.6634 39.4256ZM21.1759 37.1006C25.0282 37.1006 28.1509 33.9778 28.1509 30.1256C28.1509 26.2734 25.0282 23.1506 21.1759 23.1506C17.3237 23.1506 14.2009 26.2734 14.2009 30.1256C14.2009 33.9778 17.3237 37.1006 21.1759 37.1006ZM52.5634 13.8506H24.6634C22.7402 13.8506 21.1759 15.4672 21.1759 17.4536V20.8256C22.8775 20.8256 24.4527 21.3182 25.8259 22.1189V18.5006H51.4009V39.4256H46.7509V34.7756H37.4509V39.4256H31.9116C33.2994 40.6383 34.318 42.2396 34.7953 44.0756H52.5634C54.4867 44.0756 56.051 42.459 56.051 40.4726V17.4536C56.051 15.4672 54.4867 13.8506 52.5634 13.8506Z" fill="#834E00"/>
</svg>
