<svg width="75" height="75" viewBox="0 0 75 75" fill="none" xmlns="http://www.w3.org/2000/svg">
<path d="M0.610352 0.321289H74.7403V45.5388C74.7403 61.5067 61.7958 74.4513 45.8279 74.4513H0.610352V0.321289Z" fill="#AABBC4"/>
<path d="M47.5167 22.3457L47.5366 22.3357H47.5466L37.6753 16.668L27.809 22.3357H27.799L27.8339 22.3507L19.7207 27.0273V47.7461L37.6753 58.1055L55.6299 47.7461V27.0273L47.5167 22.3457ZM36.216 53.902L29.089 49.7881V42.8354L22.6343 39.1697V30.4589L36.216 38.2932V53.902ZM24.0388 27.8989L30.7475 24.0241L37.6653 27.9936L44.5932 24.0142L51.3268 27.8989L37.6853 35.7681L24.0388 27.8989ZM52.7163 39.1946L46.3015 42.8354V49.7632L39.1346 53.897V38.3031L52.7163 30.4688V39.1946Z" fill="#00334F"/>
</svg>
