<svg width="48" height="48" viewBox="0 0 48 48" fill="none" xmlns="http://www.w3.org/2000/svg">
<rect width="48" height="48" rx="24" fill="#E3EBFD"/>
<path d="M28.167 30.6666H19.8337C17.3337 30.6666 15.667 28.9999 15.667 26.4999V21.4999C15.667 18.9999 17.3337 17.3333 19.8337 17.3333H28.167C30.667 17.3333 32.3337 18.9999 32.3337 21.4999V26.4999C32.3337 28.9999 30.667 30.6666 28.167 30.6666Z" stroke="#4475F2" stroke-miterlimit="10" stroke-linecap="round" stroke-linejoin="round"/>
<path d="M23.5 21.9168L25.5833 23.1668C26.3333 23.6668 26.3333 24.4168 25.5833 24.9168L23.5 26.1668C22.6667 26.6668 22 26.2501 22 25.3334V22.8334C22 21.7501 22.6667 21.4168 23.5 21.9168Z" stroke="#4475F2" stroke-miterlimit="10" stroke-linecap="round" stroke-linejoin="round"/>
</svg>
