<svg width="48" height="48" viewBox="0 0 48 48" fill="none" xmlns="http://www.w3.org/2000/svg">
<rect width="48" height="48" rx="24" fill="#E3EBFD"/>
<path d="M25.6667 21.75V24.1667H27.8333C28 24.1667 28.0833 24.3333 28.0833 24.5L27.75 26.0833C27.75 26.1667 27.5833 26.25 27.5 26.25H25.6667V32.3333H23.1667V26.3333H21.75C21.5833 26.3333 21.5 26.25 21.5 26.0833V24.5C21.5 24.3333 21.5833 24.25 21.75 24.25H23.1667V21.5C23.1667 20.0833 24.25 19 25.6667 19H27.9167C28.0833 19 28.1667 19.0833 28.1667 19.25V21.25C28.1667 21.4167 28.0833 21.5 27.9167 21.5H25.9167C25.75 21.5 25.6667 21.5833 25.6667 21.75Z" stroke="#4475F2" stroke-miterlimit="10" stroke-linecap="round"/>
<path d="M26.5003 32.3334H21.5003C17.3337 32.3334 15.667 30.6667 15.667 26.5001V21.5001C15.667 17.3334 17.3337 15.6667 21.5003 15.6667H26.5003C30.667 15.6667 32.3337 17.3334 32.3337 21.5001V26.5001C32.3337 30.6667 30.667 32.3334 26.5003 32.3334Z" stroke="#4475F2" stroke-linecap="round" stroke-linejoin="round"/>
</svg>
